<?xml version="1.0" encoding="UTF-8"?>
<!DOCTYPE score-partwise PUBLIC "-//Recordare//DTD MusicXML 4.0 Partwise//EN" "http://www.musicxml.org/dtds/partwise.dtd">
<score-partwise version="4.0">
  <work><work-title>Test 06: Key Signatures</work-title></work>
  <part-list><score-part id="P1"><part-name print-object="no">Piano</part-name></score-part></part-list>
  <part id="P1">
    <!-- Measure 1: C major (0 accidentals) -->
    <measure number="1">
      <attributes>
        <divisions>4</divisions>
        <key><fifths>0</fifths><mode>major</mode></key>
        <time><beats>4</beats><beat-type>4</beat-type></time>
        <clef><sign>G</sign><line>2</line></clef>
      </attributes>
      <note><pitch><step>C</step><octave>5</octave></pitch><duration>4</duration><type>quarter</type></note>
      <note><pitch><step>E</step><octave>5</octave></pitch><duration>4</duration><type>quarter</type></note>
      <note><pitch><step>G</step><octave>5</octave></pitch><duration>4</duration><type>quarter</type></note>
      <note><pitch><step>C</step><octave>5</octave></pitch><duration>4</duration><type>quarter</type></note>
    </measure>
    <!-- Measure 2: G major (1 sharp) -->
    <measure number="2">
      <attributes><key><fifths>1</fifths><mode>major</mode></key></attributes>
      <note><pitch><step>G</step><octave>4</octave></pitch><duration>4</duration><type>quarter</type></note>
      <note><pitch><step>B</step><octave>4</octave></pitch><duration>4</duration><type>quarter</type></note>
      <note><pitch><step>D</step><octave>5</octave></pitch><duration>4</duration><type>quarter</type></note>
      <note><pitch><step>G</step><octave>4</octave></pitch><duration>4</duration><type>quarter</type></note>
    </measure>
    <!-- Measure 3: D major (2 sharps) -->
    <measure number="3">
      <attributes><key><fifths>2</fifths><mode>major</mode></key></attributes>
      <note><pitch><step>D</step><octave>5</octave></pitch><duration>4</duration><type>quarter</type></note>
      <note><pitch><step>F</step><alter>1</alter><octave>5</octave></pitch><duration>4</duration><type>quarter</type></note>
      <note><pitch><step>A</step><octave>5</octave></pitch><duration>4</duration><type>quarter</type></note>
      <note><pitch><step>D</step><octave>5</octave></pitch><duration>4</duration><type>quarter</type></note>
    </measure>
    <!-- Measure 4: A major (3 sharps) -->
    <measure number="4">
      <attributes><key><fifths>3</fifths><mode>major</mode></key></attributes>
      <note><pitch><step>A</step><octave>4</octave></pitch><duration>4</duration><type>quarter</type></note>
      <note><pitch><step>C</step><alter>1</alter><octave>5</octave></pitch><duration>4</duration><type>quarter</type></note>
      <note><pitch><step>E</step><octave>5</octave></pitch><duration>4</duration><type>quarter</type></note>
      <note><pitch><step>A</step><octave>4</octave></pitch><duration>4</duration><type>quarter</type></note>
    </measure>
    <!-- Measure 5: F major (1 flat) -->
    <measure number="5">
      <attributes><key><fifths>-1</fifths><mode>major</mode></key></attributes>
      <note><pitch><step>F</step><octave>4</octave></pitch><duration>4</duration><type>quarter</type></note>
      <note><pitch><step>A</step><octave>4</octave></pitch><duration>4</duration><type>quarter</type></note>
      <note><pitch><step>C</step><octave>5</octave></pitch><duration>4</duration><type>quarter</type></note>
      <note><pitch><step>F</step><octave>4</octave></pitch><duration>4</duration><type>quarter</type></note>
    </measure>
    <!-- Measure 6: Bb major (2 flats) -->
    <measure number="6">
      <attributes><key><fifths>-2</fifths><mode>major</mode></key></attributes>
      <note><pitch><step>B</step><alter>-1</alter><octave>4</octave></pitch><duration>4</duration><type>quarter</type></note>
      <note><pitch><step>D</step><octave>5</octave></pitch><duration>4</duration><type>quarter</type></note>
      <note><pitch><step>F</step><octave>5</octave></pitch><duration>4</duration><type>quarter</type></note>
      <note><pitch><step>B</step><alter>-1</alter><octave>4</octave></pitch><duration>4</duration><type>quarter</type></note>
    </measure>
    <!-- Measure 7: Ab major (4 flats) -->
    <measure number="7">
      <attributes><key><fifths>-4</fifths><mode>major</mode></key></attributes>
      <note><pitch><step>A</step><alter>-1</alter><octave>4</octave></pitch><duration>4</duration><type>quarter</type></note>
      <note><pitch><step>C</step><octave>5</octave></pitch><duration>4</duration><type>quarter</type></note>
      <note><pitch><step>E</step><alter>-1</alter><octave>5</octave></pitch><duration>4</duration><type>quarter</type></note>
      <note><pitch><step>A</step><alter>-1</alter><octave>4</octave></pitch><duration>4</duration><type>quarter</type></note>
    </measure>
    <measure number="8">
      <barline location="right"><bar-style>light-heavy</bar-style></barline>
    </measure>
  </part>
</score-partwise>
