<?xml version="1.0" encoding="UTF-8"?>
<!DOCTYPE score-partwise PUBLIC "-//Recordare//DTD MusicXML 3.1 Partwise//EN" "http://www.musicxml.org/dtds/partwise.dtd">
<score-partwise version="3.1">
  <work>
    <work-title>Invention No. 1 in C major</work-title>
  </work>
  <identification>
    <creator type="composer">Johann Sebastian Bach</creator>
    <encoding>
      <software>MAP Music Analysis Platform</software>
    </encoding>
  </identification>
  <part-list>
    <score-part id="P1">
      <part-name>Piano</part-name>
    </score-part>
  </part-list>
  <part id="P1">
    <measure number="1">
      <attributes>
        <divisions>4</divisions>
        <key><fifths>0</fifths><mode>major</mode></key>
        <time><beats>2</beats><beat-type>4</beat-type></time>
        <clef><sign>G</sign><line>2</line></clef>
      </attributes>
      <direction placement="above">
        <direction-type><words>Allegro</words></direction-type>
        <sound tempo="120"/>
      </direction>
      <note><pitch><step>C</step><octave>4</octave></pitch><duration>1</duration><type>16th</type></note>
      <note><pitch><step>D</step><octave>4</octave></pitch><duration>1</duration><type>16th</type></note>
      <note><pitch><step>E</step><octave>4</octave></pitch><duration>1</duration><type>16th</type></note>
      <note><pitch><step>F</step><octave>4</octave></pitch><duration>1</duration><type>16th</type></note>
      <note><pitch><step>G</step><octave>4</octave></pitch><duration>1</duration><type>16th</type></note>
      <note><pitch><step>A</step><octave>4</octave></pitch><duration>1</duration><type>16th</type></note>
      <note><pitch><step>B</step><octave>4</octave></pitch><duration>1</duration><type>16th</type></note>
      <note><pitch><step>C</step><octave>5</octave></pitch><duration>1</duration><type>16th</type></note>
    </measure>
    <measure number="2">
      <note><pitch><step>D</step><octave>5</octave></pitch><duration>1</duration><type>16th</type></note>
      <note><pitch><step>C</step><octave>5</octave></pitch><duration>1</duration><type>16th</type></note>
      <note><pitch><step>B</step><octave>4</octave></pitch><duration>1</duration><type>16th</type></note>
      <note><pitch><step>A</step><octave>4</octave></pitch><duration>1</duration><type>16th</type></note>
      <note><pitch><step>G</step><octave>4</octave></pitch><duration>1</duration><type>16th</type></note>
      <note><pitch><step>A</step><octave>4</octave></pitch><duration>1</duration><type>16th</type></note>
      <note><pitch><step>B</step><octave>4</octave></pitch><duration>1</duration><type>16th</type></note>
      <note><pitch><step>C</step><octave>5</octave></pitch><duration>1</duration><type>16th</type></note>
    </measure>
    <measure number="3">
      <note><pitch><step>D</step><octave>5</octave></pitch><duration>1</duration><type>16th</type></note>
      <note><pitch><step>E</step><octave>5</octave></pitch><duration>1</duration><type>16th</type></note>
      <note><pitch><step>F</step><octave>5</octave></pitch><duration>1</duration><type>16th</type></note>
      <note><pitch><step>G</step><octave>5</octave></pitch><duration>1</duration><type>16th</type></note>
      <note><pitch><step>E</step><octave>5</octave></pitch><duration>1</duration><type>16th</type></note>
      <note><pitch><step>F</step><octave>5</octave></pitch><duration>1</duration><type>16th</type></note>
      <note><pitch><step>G</step><octave>5</octave></pitch><duration>1</duration><type>16th</type></note>
      <note><pitch><step>A</step><octave>5</octave></pitch><duration>1</duration><type>16th</type></note>
    </measure>
    <measure number="4">
      <note><pitch><step>B</step><octave>4</octave></pitch><duration>2</duration><type>eighth</type></note>
      <note><pitch><step>C</step><octave>5</octave></pitch><duration>1</duration><type>16th</type></note>
      <note><pitch><step>B</step><octave>4</octave></pitch><duration>1</duration><type>16th</type></note>
      <note><pitch><step>A</step><octave>4</octave></pitch><duration>2</duration><type>eighth</type></note>
      <note><pitch><step>G</step><octave>4</octave></pitch><duration>1</duration><type>16th</type></note>
      <note><pitch><step>A</step><octave>4</octave></pitch><duration>1</duration><type>16th</type></note>
    </measure>
    <measure number="5">
      <note><pitch><step>B</step><octave>4</octave></pitch><duration>1</duration><type>16th</type></note>
      <note><pitch><step>C</step><octave>5</octave></pitch><duration>1</duration><type>16th</type></note>
      <note><pitch><step>D</step><octave>5</octave></pitch><duration>1</duration><type>16th</type></note>
      <note><pitch><step>E</step><octave>5</octave></pitch><duration>1</duration><type>16th</type></note>
      <note><pitch><step>C</step><octave>5</octave></pitch><duration>1</duration><type>16th</type></note>
      <note><pitch><step>D</step><octave>5</octave></pitch><duration>1</duration><type>16th</type></note>
      <note><pitch><step>E</step><octave>5</octave></pitch><duration>1</duration><type>16th</type></note>
      <note><pitch><step>F</step><octave>5</octave></pitch><duration>1</duration><type>16th</type></note>
    </measure>
    <measure number="6">
      <note><pitch><step>D</step><octave>5</octave></pitch><duration>1</duration><type>16th</type></note>
      <note><pitch><step>E</step><octave>5</octave></pitch><duration>1</duration><type>16th</type></note>
      <note><pitch><step>F</step><octave>5</octave></pitch><duration>1</duration><type>16th</type></note>
      <note><pitch><step>G</step><octave>5</octave></pitch><duration>1</duration><type>16th</type></note>
      <note><pitch><step>E</step><octave>5</octave></pitch><duration>2</duration><type>eighth</type></note>
      <note><pitch><step>C</step><octave>5</octave></pitch><duration>2</duration><type>eighth</type></note>
    </measure>
    <measure number="7">
      <note><pitch><step>A</step><octave>4</octave></pitch><duration>1</duration><type>16th</type></note>
      <note><pitch><step>B</step><octave>4</octave></pitch><duration>1</duration><type>16th</type></note>
      <note><pitch><step>C</step><octave>5</octave></pitch><duration>1</duration><type>16th</type></note>
      <note><pitch><step>D</step><octave>5</octave></pitch><duration>1</duration><type>16th</type></note>
      <note><pitch><step>B</step><octave>4</octave></pitch><duration>1</duration><type>16th</type></note>
      <note><pitch><step>C</step><octave>5</octave></pitch><duration>1</duration><type>16th</type></note>
      <note><pitch><step>D</step><octave>5</octave></pitch><duration>1</duration><type>16th</type></note>
      <note><pitch><step>E</step><octave>5</octave></pitch><duration>1</duration><type>16th</type></note>
    </measure>
    <measure number="8">
      <note><pitch><step>C</step><octave>5</octave></pitch><duration>4</duration><type>quarter</type></note>
      <note><pitch><step>G</step><octave>4</octave></pitch><duration>4</duration><type>quarter</type></note>
    </measure>
  </part>
</score-partwise>
